<svg width="3141" height="3767" viewBox="0 0 3141 3767" fill="none" xmlns="http://www.w3.org/2000/svg">
<path fill-rule="evenodd" clip-rule="evenodd" d="M879 4H531V2503H532.291L530.898 2505.41L1593.88 3129.93L1593.9 3129.96L1593.92 3129.95L1594 3130L1594.1 3129.85L2611.48 2542.46L2611 2541.63L2600 1387.36L2600.48 1386.54L1583.07 799.137L1583 799L1582.92 799.047L1582.9 799.035L1582.88 799.069L879 1200.93V4ZM879 1626.08V2304.55L1581.28 2710.01L2230.19 2335.36V1599.99L1577.19 1222.98L879 1626.08ZM2692 1222L3044.69 1001.54L1619 164L1618.83 164.265L1618.69 164.035L1046 484V920L1606.38 597.882L2692 1222ZM375 861L5.00045 1065V2830H5.16667L4.89844 2830.46L1618.3 3761.96L1620.1 3758.85L1621.9 3761.96L3081.15 2919.46L2710 2713L1620.91 3336.23L375 2616.9V861ZM3137 2757L2767 2552L2767.02 1757H3137.02L3137 2757Z" fill="black"/>
<path d="M531 4V0.5H527.5V4H531ZM879 4H882.5V0.5H879V4ZM531 2503H527.5V2506.5H531V2503ZM532.291 2503L535.322 2504.75L538.353 2499.5H532.291V2503ZM530.898 2505.41L527.867 2503.66L526.131 2506.67L529.125 2508.43L530.898 2505.41ZM1593.88 3129.93L1596.91 3128.17L1596.44 3127.38L1595.65 3126.91L1593.88 3129.93ZM1593.9 3129.96L1590.87 3131.72L1592.62 3134.75L1595.65 3132.99L1593.9 3129.96ZM1593.92 3129.95L1595.69 3126.94L1593.93 3125.9L1592.17 3126.92L1593.92 3129.95ZM1594 3130L1592.23 3133.02L1595.1 3134.71L1596.93 3131.92L1594 3130ZM1594.1 3129.85L1592.35 3126.82L1591.63 3127.23L1591.17 3127.93L1594.1 3129.85ZM2611.48 2542.46L2613.23 2545.5L2616.26 2543.75L2614.51 2540.72L2611.48 2542.46ZM2611 2541.63L2607.5 2541.66L2607.51 2542.58L2607.97 2543.38L2611 2541.63ZM2600 1387.36L2596.97 1385.61L2596.49 1386.43L2596.5 1387.39L2600 1387.36ZM2600.48 1386.54L2603.51 1388.29L2605.26 1385.25L2602.23 1383.5L2600.48 1386.54ZM1583.07 799.137L1580 800.803L1580.47 801.673L1581.32 802.168L1583.07 799.137ZM1583 799L1586.08 797.334L1584.37 794.186L1581.27 795.96L1583 799ZM1582.92 799.047L1581.16 802.075L1582.9 803.085L1584.65 802.087L1582.92 799.047ZM1582.9 799.035L1584.65 796.007L1581.62 794.25L1579.87 797.283L1582.9 799.035ZM1582.88 799.069L1584.61 802.109L1585.43 801.64L1585.91 800.822L1582.88 799.069ZM879 1200.93H875.5V1206.96L880.736 1203.97L879 1200.93ZM879 1626.08L877.25 1623.05L875.5 1624.06V1626.08H879ZM879 2304.55H875.5V2306.57L877.25 2307.58L879 2304.55ZM1581.28 2710.01L1579.53 2713.04L1581.28 2714.05L1583.03 2713.04L1581.28 2710.01ZM2230.19 2335.36L2231.94 2338.39L2233.69 2337.38V2335.36H2230.19ZM2230.19 1599.99H2233.69V1597.97L2231.94 1596.96L2230.19 1599.99ZM1577.19 1222.98L1578.94 1219.95L1577.19 1218.94L1575.44 1219.95L1577.19 1222.98ZM3044.69 1001.54L3046.55 1004.5L3051.45 1001.44L3046.47 998.517L3044.69 1001.54ZM2692 1222L2690.26 1225.03L2692.08 1226.08L2693.86 1224.97L2692 1222ZM1619 164L1620.77 160.982L1617.9 159.294L1616.07 162.082L1619 164ZM1618.83 164.265L1615.8 166.015L1618.64 170.939L1621.76 166.182L1618.83 164.265ZM1618.69 164.035L1621.73 162.285L1620 159.297L1616.99 160.98L1618.69 164.035ZM1046 484L1044.29 480.945L1042.5 481.946V484H1046ZM1046 920H1042.5V926.049L1047.74 923.034L1046 920ZM1606.38 597.882L1608.13 594.848L1606.38 593.845L1604.64 594.847L1606.38 597.882ZM5.00045 1065L3.31055 1061.93L1.50045 1062.93V1065H5.00045ZM375 861H378.5V855.074L373.311 857.935L375 861ZM5.00045 2830H1.50045V2833.5H5.00045V2830ZM5.16667 2830L8.19776 2831.75L11.2289 2826.5H5.16667V2830ZM4.89844 2830.46L1.86735 2828.71L0.117349 2831.75L3.14844 2833.5L4.89844 2830.46ZM1618.3 3761.96L1616.55 3765L1619.58 3766.75L1621.33 3763.71L1618.3 3761.96ZM1620.1 3758.85L1623.13 3757.1L1620.1 3751.85L1617.07 3757.1L1620.1 3758.85ZM1621.9 3761.96L1618.87 3763.71L1620.62 3766.75L1623.65 3765L1621.9 3761.96ZM3081.15 2919.46L3082.9 2922.5L3088.25 2919.41L3082.85 2916.41L3081.15 2919.46ZM2710 2713L2711.7 2709.94L2709.98 2708.98L2708.26 2709.96L2710 2713ZM1620.91 3336.23L1619.16 3339.26L1620.91 3340.27L1622.65 3339.27L1620.91 3336.23ZM375 2616.9H371.5V2618.92L373.25 2619.93L375 2616.9ZM2767 2552H2763.5V2554.06L2765.3 2555.06L2767 2552ZM3137 2757L3135.3 2760.06L3140.5 2762.94L3140.5 2757H3137ZM2767.02 1757V1753.5H2763.52V1757L2767.02 1757ZM3137.02 1757L3140.52 1757V1753.5H3137.02V1757ZM531 7.5H879V0.5H531V7.5ZM534.5 2503V4H527.5V2503H534.5ZM532.291 2499.5H531V2506.5H532.291V2499.5ZM529.26 2501.25L527.867 2503.66L533.93 2507.16L535.322 2504.75L529.26 2501.25ZM529.125 2508.43L1592.1 3132.95L1595.65 3126.91L532.671 2502.39L529.125 2508.43ZM1590.85 3131.68L1590.87 3131.72L1596.93 3128.21L1596.91 3128.17L1590.85 3131.68ZM1595.65 3132.99L1595.67 3132.98L1592.17 3126.92L1592.15 3126.93L1595.65 3132.99ZM1592.15 3132.97L1592.23 3133.02L1595.78 3126.98L1595.69 3126.94L1592.15 3132.97ZM1596.93 3131.92L1597.03 3131.77L1591.17 3127.93L1591.07 3128.08L1596.93 3131.92ZM1595.85 3132.88L2613.23 2545.5L2609.73 2539.43L1592.35 3126.82L1595.85 3132.88ZM2614.51 2540.72L2614.03 2539.88L2607.97 2543.38L2608.45 2544.21L2614.51 2540.72ZM2614.5 2541.6L2603.5 1387.32L2596.5 1387.39L2607.5 2541.66L2614.5 2541.6ZM2603.03 1389.11L2603.51 1388.29L2597.45 1384.79L2596.97 1385.61L2603.03 1389.11ZM2602.23 1383.5L1584.82 796.106L1581.32 802.168L2598.73 1389.57L2602.23 1383.5ZM1586.15 797.471L1586.08 797.334L1579.92 800.666L1580 800.803L1586.15 797.471ZM1581.27 795.96L1581.18 796.007L1584.65 802.087L1584.74 802.04L1581.27 795.96ZM1584.67 796.019L1584.65 796.007L1581.14 802.063L1581.16 802.075L1584.67 796.019ZM1579.87 797.283L1579.85 797.317L1585.91 800.822L1585.93 800.788L1579.87 797.283ZM1581.14 796.03L877.265 1197.89L880.736 1203.97L1584.61 802.109L1581.14 796.03ZM875.5 4V1200.93H882.5V4H875.5ZM875.5 1626.08V2304.55H882.5V1626.08H875.5ZM1583.03 2706.98L880.75 2301.52L877.25 2307.58L1579.53 2713.04L1583.03 2706.98ZM2228.44 2332.33L1579.53 2706.98L1583.03 2713.04L2231.94 2338.39L2228.44 2332.33ZM2226.69 1599.99V2335.36H2233.69V1599.99H2226.69ZM1575.44 1226.01L2228.44 1603.02L2231.94 1596.96L1578.94 1219.95L1575.44 1226.01ZM880.75 1629.11L1578.94 1226.01L1575.44 1219.95L877.25 1623.05L880.75 1629.11ZM3042.84 998.567L2690.15 1219.03L2693.86 1224.97L3046.55 1004.5L3042.84 998.567ZM1617.23 167.018L3042.92 1004.55L3046.47 998.517L1620.77 160.982L1617.23 167.018ZM1621.76 166.182L1621.93 165.918L1616.07 162.082L1615.9 162.347L1621.76 166.182ZM1615.66 165.786L1615.8 166.015L1621.86 162.514L1621.73 162.285L1615.66 165.786ZM1047.71 487.055L1620.4 167.091L1616.99 160.98L1044.29 480.945L1047.71 487.055ZM1049.5 920V484H1042.5V920H1049.5ZM1604.64 594.847L1044.26 916.966L1047.74 923.034L1608.13 600.916L1604.64 594.847ZM2693.74 1218.97L1608.13 594.848L1604.64 600.916L2690.26 1225.03L2693.74 1218.97ZM6.69034 1068.07L376.69 864.065L373.311 857.935L3.31055 1061.93L6.69034 1068.07ZM8.50045 2830V1065H1.50045V2830H8.50045ZM5.16667 2826.5H5.00045V2833.5H5.16667V2826.5ZM7.92953 2832.21L8.19776 2831.75L2.13559 2828.25L1.86735 2828.71L7.92953 2832.21ZM1620.05 3758.93L6.64844 2827.43L3.14844 2833.5L1616.55 3765L1620.05 3758.93ZM1617.07 3757.1L1615.27 3760.21L1621.33 3763.71L1623.13 3760.6L1617.07 3757.1ZM1624.93 3760.21L1623.13 3757.1L1617.07 3760.6L1618.87 3763.71L1624.93 3760.21ZM3079.4 2916.43L1620.15 3758.93L1623.65 3765L3082.9 2922.5L3079.4 2916.43ZM2708.3 2716.06L3079.45 2922.52L3082.85 2916.41L2711.7 2709.94L2708.3 2716.06ZM1622.65 3339.27L2711.74 2716.04L2708.26 2709.96L1619.18 3333.19L1622.65 3339.27ZM373.25 2619.93L1619.16 3339.26L1622.66 3333.2L376.75 2613.87L373.25 2619.93ZM371.5 861V2616.9H378.5V861H371.5ZM2765.3 2555.06L3135.3 2760.06L3138.7 2753.94L2768.7 2548.94L2765.3 2555.06ZM2763.52 1757L2763.5 2552H2770.5L2770.52 1757L2763.52 1757ZM3137.02 1753.5H2767.02V1760.5H3137.02V1753.5ZM3140.5 2757L3140.52 1757L3133.52 1757L3133.5 2757H3140.5Z" fill="black"/>
<path fill-rule="evenodd" clip-rule="evenodd" d="M3137.02 1625H2767.02L2767 1355L3137.02 1176V1625Z" fill="#0EB5BB" stroke="#0EB5BB" stroke-width="7"/>
</svg>
